<svg id="visual" viewBox="0 0 960 540" width="960" height="540" xmlns="http://www.w3.org/2000/svg" xmlns:xlink="http://www.w3.org/1999/xlink" version="1.1"><path d="M0 55L17.8 53.2C35.7 51.3 71.3 47.7 106.8 53C142.3 58.3 177.7 72.7 213.2 82.7C248.7 92.7 284.3 98.3 320 99.3C355.7 100.3 391.3 96.7 426.8 92.2C462.3 87.7 497.7 82.3 533.2 73.3C568.7 64.3 604.3 51.7 640 53.3C675.7 55 711.3 71 746.8 72.8C782.3 74.7 817.7 62.3 853.2 64.2C888.7 66 924.3 82 942.2 90L960 98L960 0L942.2 0C924.3 0 888.7 0 853.2 0C817.7 0 782.3 0 746.8 0C711.3 0 675.7 0 640 0C604.3 0 568.7 0 533.2 0C497.7 0 462.3 0 426.8 0C391.3 0 355.7 0 320 0C284.3 0 248.7 0 213.2 0C177.7 0 142.3 0 106.8 0C71.3 0 35.7 0 17.8 0L0 0Z" fill="#0b5974"></path><path d="M0 233L17.8 219.5C35.7 206 71.3 179 106.8 192.5C142.3 206 177.7 260 213.2 279.8C248.7 299.7 284.3 285.3 320 267.3C355.7 249.3 391.3 227.7 426.8 230.3C462.3 233 497.7 260 533.2 259.2C568.7 258.3 604.3 229.7 640 210.8C675.7 192 711.3 183 746.8 189.3C782.3 195.7 817.7 217.3 853.2 236.2C888.7 255 924.3 271 942.2 279L960 287L960 96L942.2 88C924.3 80 888.7 64 853.2 62.2C817.7 60.3 782.3 72.7 746.8 70.8C711.3 69 675.7 53 640 51.3C604.3 49.7 568.7 62.3 533.2 71.3C497.7 80.3 462.3 85.7 426.8 90.2C391.3 94.7 355.7 98.3 320 97.3C284.3 96.3 248.7 90.7 213.2 80.7C177.7 70.7 142.3 56.3 106.8 51C71.3 45.7 35.7 49.3 17.8 51.2L0 53Z" fill="#054156"></path><path d="M0 395L17.8 380.7C35.7 366.3 71.3 337.7 106.8 335.8C142.3 334 177.7 359 213.2 368.8C248.7 378.7 284.3 373.3 320 378.8C355.7 384.3 391.3 400.7 426.8 407.8C462.3 415 497.7 413 533.2 397.7C568.7 382.3 604.3 353.7 640 347.5C675.7 341.3 711.3 357.7 746.8 363C782.3 368.3 817.7 362.7 853.2 361.7C888.7 360.7 924.3 364.3 942.2 366.2L960 368L960 285L942.2 277C924.3 269 888.7 253 853.2 234.2C817.7 215.3 782.3 193.7 746.8 187.3C711.3 181 675.7 190 640 208.8C604.3 227.7 568.7 256.3 533.2 257.2C497.7 258 462.3 231 426.8 228.3C391.3 225.7 355.7 247.3 320 265.3C284.3 283.3 248.7 297.7 213.2 277.8C177.7 258 142.3 204 106.8 190.5C71.3 177 35.7 204 17.8 217.5L0 231Z" fill="#022b3a"></path><path d="M0 487L17.8 481.7C35.7 476.3 71.3 465.7 106.8 466.5C142.3 467.3 177.7 479.7 213.2 485C248.7 490.3 284.3 488.7 320 489.7C355.7 490.7 391.3 494.3 426.8 489.8C462.3 485.3 497.7 472.7 533.2 464.5C568.7 456.3 604.3 452.7 640 457.2C675.7 461.7 711.3 474.3 746.8 483.3C782.3 492.3 817.7 497.7 853.2 499.5C888.7 501.3 924.3 499.7 942.2 498.8L960 498L960 366L942.2 364.2C924.3 362.3 888.7 358.7 853.2 359.7C817.7 360.7 782.3 366.3 746.8 361C711.3 355.7 675.7 339.3 640 345.5C604.3 351.7 568.7 380.3 533.2 395.7C497.7 411 462.3 413 426.8 405.8C391.3 398.7 355.7 382.3 320 376.8C284.3 371.3 248.7 376.7 213.2 366.8C177.7 357 142.3 332 106.8 333.8C71.3 335.7 35.7 364.3 17.8 378.7L0 393Z" fill="#052632"></path><path d="M0 541L17.8 541C35.7 541 71.3 541 106.8 541C142.3 541 177.7 541 213.2 541C248.7 541 284.3 541 320 541C355.7 541 391.3 541 426.8 541C462.3 541 497.7 541 533.2 541C568.7 541 604.3 541 640 541C675.7 541 711.3 541 746.8 541C782.3 541 817.7 541 853.2 541C888.7 541 924.3 541 942.2 541L960 541L960 496L942.2 496.8C924.3 497.7 888.7 499.3 853.2 497.5C817.7 495.7 782.3 490.3 746.8 481.3C711.3 472.3 675.7 459.7 640 455.2C604.3 450.7 568.7 454.3 533.2 462.5C497.7 470.7 462.3 483.3 426.8 487.8C391.3 492.3 355.7 488.7 320 487.7C284.3 486.7 248.7 488.3 213.2 483C177.7 477.7 142.3 465.3 106.8 464.5C71.3 463.7 35.7 474.3 17.8 479.7L0 485Z" fill="#07212b"></path></svg>