<svg id="visual" viewBox="0 0 900 100" width="900" height="100" xmlns="http://www.w3.org/2000/svg" xmlns:xlink="http://www.w3.org/1999/xlink" version="1.1"><path d="M0 53L21.5 57.7C43 62.3 86 71.7 128.8 67C171.7 62.3 214.3 43.7 257.2 42C300 40.3 343 55.7 385.8 62.7C428.7 69.7 471.3 68.3 514.2 58.5C557 48.7 600 30.3 642.8 33C685.7 35.7 728.3 59.3 771.2 64.8C814 70.3 857 57.7 878.5 51.3L900 45L900 101L878.5 101C857 101 814 101 771.2 101C728.3 101 685.7 101 642.8 101C600 101 557 101 514.2 101C471.3 101 428.7 101 385.8 101C343 101 300 101 257.2 101C214.3 101 171.7 101 128.8 101C86 101 43 101 21.5 101L0 101Z" fill="#e3f2fd" stroke-linecap="round" stroke-linejoin="miter"></path></svg>