<svg id="visual" viewBox="0 0 900 100" width="900" height="100" xmlns="http://www.w3.org/2000/svg" xmlns:xlink="http://www.w3.org/1999/xlink" version="1.1"><path d="M0 42L21.5 45.5C43 49 86 56 128.8 54.7C171.7 53.3 214.3 43.7 257.2 39.8C300 36 343 38 385.8 44.2C428.7 50.3 471.3 60.7 514.2 63.3C557 66 600 61 642.8 52.5C685.7 44 728.3 32 771.2 28.2C814 24.3 857 28.7 878.5 30.8L900 33L900 101L878.5 101C857 101 814 101 771.2 101C728.3 101 685.7 101 642.8 101C600 101 557 101 514.2 101C471.3 101 428.7 101 385.8 101C343 101 300 101 257.2 101C214.3 101 171.7 101 128.8 101C86 101 43 101 21.5 101L0 101Z" fill="#04395e" stroke-linecap="round" stroke-linejoin="miter"></path></svg>