<?xml version="1.0" standalone="no"?><svg xmlns="http://www.w3.org/2000/svg" viewBox="0 0 1440 320"><path fill="#04395e" fill-opacity="1" d="M0,160L0,32L120,32L120,160L240,160L240,32L360,32L360,288L480,288L480,96L600,96L600,160L720,160L720,192L840,192L840,128L960,128L960,160L1080,160L1080,64L1200,64L1200,192L1320,192L1320,160L1440,160L1440,320L1320,320L1320,320L1200,320L1200,320L1080,320L1080,320L960,320L960,320L840,320L840,320L720,320L720,320L600,320L600,320L480,320L480,320L360,320L360,320L240,320L240,320L120,320L120,320L0,320L0,320Z"></path></svg>