<svg id="visual" viewBox="0 0 900 300" width="900" height="300" xmlns="http://www.w3.org/2000/svg" xmlns:xlink="http://www.w3.org/1999/xlink" version="1.1"><path d="M0 134L21.5 130.8C43 127.7 86 121.3 128.8 116.8C171.7 112.3 214.3 109.7 257.2 109C300 108.3 343 109.7 385.8 113C428.7 116.3 471.3 121.7 514.2 122.2C557 122.7 600 118.3 642.8 113.8C685.7 109.3 728.3 104.7 771.2 103C814 101.3 857 102.7 878.5 103.3L900 104L900 301L878.5 301C857 301 814 301 771.2 301C728.3 301 685.7 301 642.8 301C600 301 557 301 514.2 301C471.3 301 428.7 301 385.8 301C343 301 300 301 257.2 301C214.3 301 171.7 301 128.8 301C86 301 43 301 21.5 301L0 301Z" fill="#47abd0"></path><path d="M0 162L21.5 163.5C43 165 86 168 128.8 167.5C171.7 167 214.3 163 257.2 158.2C300 153.3 343 147.7 385.8 148C428.7 148.3 471.3 154.7 514.2 154.5C557 154.3 600 147.7 642.8 147.3C685.7 147 728.3 153 771.2 155.5C814 158 857 157 878.5 156.5L900 156L900 301L878.5 301C857 301 814 301 771.2 301C728.3 301 685.7 301 642.8 301C600 301 557 301 514.2 301C471.3 301 428.7 301 385.8 301C343 301 300 301 257.2 301C214.3 301 171.7 301 128.8 301C86 301 43 301 21.5 301L0 301Z" fill="#3588a8"></path><path d="M0 202L21.5 199.5C43 197 86 192 128.8 187.2C171.7 182.3 214.3 177.7 257.2 175.3C300 173 343 173 385.8 177.7C428.7 182.3 471.3 191.7 514.2 197.7C557 203.7 600 206.3 642.8 204.7C685.7 203 728.3 197 771.2 192C814 187 857 183 878.5 181L900 179L900 301L878.5 301C857 301 814 301 771.2 301C728.3 301 685.7 301 642.8 301C600 301 557 301 514.2 301C471.3 301 428.7 301 385.8 301C343 301 300 301 257.2 301C214.3 301 171.7 301 128.8 301C86 301 43 301 21.5 301L0 301Z" fill="#236781"></path><path d="M0 229L21.5 229.5C43 230 86 231 128.8 233.3C171.7 235.7 214.3 239.3 257.2 235.2C300 231 343 219 385.8 218.8C428.7 218.7 471.3 230.3 514.2 230.7C557 231 600 220 642.8 216.7C685.7 213.3 728.3 217.7 771.2 220.3C814 223 857 224 878.5 224.5L900 225L900 301L878.5 301C857 301 814 301 771.2 301C728.3 301 685.7 301 642.8 301C600 301 557 301 514.2 301C471.3 301 428.7 301 385.8 301C343 301 300 301 257.2 301C214.3 301 171.7 301 128.8 301C86 301 43 301 21.5 301L0 301Z" fill="#11485c"></path><path d="M0 269L21.5 265.7C43 262.3 86 255.7 128.8 256.7C171.7 257.7 214.3 266.3 257.2 267.7C300 269 343 263 385.8 261.2C428.7 259.3 471.3 261.7 514.2 261.7C557 261.7 600 259.3 642.8 256.2C685.7 253 728.3 249 771.2 249.3C814 249.7 857 254.3 878.5 256.7L900 259L900 301L878.5 301C857 301 814 301 771.2 301C728.3 301 685.7 301 642.8 301C600 301 557 301 514.2 301C471.3 301 428.7 301 385.8 301C343 301 300 301 257.2 301C214.3 301 171.7 301 128.8 301C86 301 43 301 21.5 301L0 301Z" fill="#022b3a"></path></svg>