<svg id="visual" viewBox="0 0 900 150" width="900" height="150" xmlns="http://www.w3.org/2000/svg" xmlns:xlink="http://www.w3.org/1999/xlink" version="1.1"><path d="M0 83L18.8 84.8C37.7 86.7 75.3 90.3 112.8 83.3C150.3 76.3 187.7 58.7 225.2 54.7C262.7 50.7 300.3 60.3 337.8 68.3C375.3 76.3 412.7 82.7 450.2 85.7C487.7 88.7 525.3 88.3 562.8 82.7C600.3 77 637.7 66 675.2 65.7C712.7 65.3 750.3 75.7 787.8 80.7C825.3 85.7 862.7 85.3 881.3 85.2L900 85L900 151L881.3 151C862.7 151 825.3 151 787.8 151C750.3 151 712.7 151 675.2 151C637.7 151 600.3 151 562.8 151C525.3 151 487.7 151 450.2 151C412.7 151 375.3 151 337.8 151C300.3 151 262.7 151 225.2 151C187.7 151 150.3 151 112.8 151C75.3 151 37.7 151 18.8 151L0 151Z" fill="#44bce7"></path><path d="M0 58L18.8 57.3C37.7 56.7 75.3 55.3 112.8 62.8C150.3 70.3 187.7 86.7 225.2 87.3C262.7 88 300.3 73 337.8 72C375.3 71 412.7 84 450.2 92C487.7 100 525.3 103 562.8 102.5C600.3 102 637.7 98 675.2 94C712.7 90 750.3 86 787.8 87.3C825.3 88.7 862.7 95.3 881.3 98.7L900 102L900 151L881.3 151C862.7 151 825.3 151 787.8 151C750.3 151 712.7 151 675.2 151C637.7 151 600.3 151 562.8 151C525.3 151 487.7 151 450.2 151C412.7 151 375.3 151 337.8 151C300.3 151 262.7 151 225.2 151C187.7 151 150.3 151 112.8 151C75.3 151 37.7 151 18.8 151L0 151Z" fill="#2d88a9"></path><path d="M0 110L18.8 108.2C37.7 106.3 75.3 102.7 112.8 97.5C150.3 92.3 187.7 85.7 225.2 82.3C262.7 79 300.3 79 337.8 81C375.3 83 412.7 87 450.2 89.2C487.7 91.3 525.3 91.7 562.8 97.3C600.3 103 637.7 114 675.2 112.7C712.7 111.3 750.3 97.7 787.8 95.8C825.3 94 862.7 104 881.3 109L900 114L900 151L881.3 151C862.7 151 825.3 151 787.8 151C750.3 151 712.7 151 675.2 151C637.7 151 600.3 151 562.8 151C525.3 151 487.7 151 450.2 151C412.7 151 375.3 151 337.8 151C300.3 151 262.7 151 225.2 151C187.7 151 150.3 151 112.8 151C75.3 151 37.7 151 18.8 151L0 151Z" fill="#16576f"></path><path d="M0 124L18.8 124.3C37.7 124.7 75.3 125.3 112.8 128C150.3 130.7 187.7 135.3 225.2 135.2C262.7 135 300.3 130 337.8 125.2C375.3 120.3 412.7 115.7 450.2 114.8C487.7 114 525.3 117 562.8 120.5C600.3 124 637.7 128 675.2 126.5C712.7 125 750.3 118 787.8 114.3C825.3 110.7 862.7 110.3 881.3 110.2L900 110L900 151L881.3 151C862.7 151 825.3 151 787.8 151C750.3 151 712.7 151 675.2 151C637.7 151 600.3 151 562.8 151C525.3 151 487.7 151 450.2 151C412.7 151 375.3 151 337.8 151C300.3 151 262.7 151 225.2 151C187.7 151 150.3 151 112.8 151C75.3 151 37.7 151 18.8 151L0 151Z" fill="#022b3a"></path></svg>