<svg id="visual" viewBox="0 0 900 100" width="900" height="100" xmlns="http://www.w3.org/2000/svg" xmlns:xlink="http://www.w3.org/1999/xlink" version="1.1"><path d="M0 45L21.5 40.3C43 35.7 86 26.3 128.8 31C171.7 35.7 214.3 54.3 257.2 56C300 57.7 343 42.3 385.8 35.3C428.7 28.3 471.3 29.7 514.2 39.5C557 49.3 600 67.7 642.8 65C685.7 62.3 728.3 38.7 771.2 33.2C814 27.7 857 40.3 878.5 46.7L900 53L900 0L878.5 0C857 0 814 0 771.2 0C728.3 0 685.7 0 642.8 0C600 0 557 0 514.2 0C471.3 0 428.7 0 385.8 0C343 0 300 0 257.2 0C214.3 0 171.7 0 128.8 0C86 0 43 0 21.5 0L0 0Z" fill="#04395e" stroke-linecap="round" stroke-linejoin="miter"></path></svg>